<!--suppress CheckTagEmptyBody -->
<svg xmlns="http://www.w3.org/2000/svg" width="256" height="256"
     viewBox="0 0 256 256" fill="none">
    <path fill="#FFFFFF" fill-opacity="0" d="M0 256L256 256L256 0L0 0L0 256Z"></path>
    <path fill="#FFFFFF"
          d="M230.258 84.1838L230.258 172.816C230.258 181.748 225.493 190.001 217.758 194.467L141 238.783C133.265 243.249 123.735 243.249 116 238.783L39.242 194.467C31.507 190.001 26.742 181.748 26.742 172.816L26.742 84.1838C26.742 75.2521 31.507 66.9989 39.242 62.5331L116 18.2169C123.735 13.7511 133.265 13.7511 141 18.2169L217.758 62.5331C225.493 66.9989 230.258 75.2521 230.258 84.1838Z"></path>
    <path fill="url(#linear_border_4_2_0)"
          d="M240.258 84.1838L240.258 172.816Q240.258 177.466 239.046 181.949Q237.854 186.358 235.569 190.316Q233.284 194.274 230.061 197.511Q226.785 200.802 222.758 203.127L146 247.443Q141.973 249.768 137.485 250.96Q133.07 252.132 128.5 252.132Q123.93 252.132 119.515 250.96Q115.027 249.768 111 247.443L34.242 203.127Q30.2153 200.802 26.9389 197.511Q23.7164 194.274 21.4311 190.316Q19.1459 186.358 17.9539 181.949Q16.742 177.466 16.742 172.816L16.742 84.1838Q16.742 79.5341 17.9539 75.0511Q19.1459 70.6419 21.4311 66.6838Q23.7164 62.7256 26.9389 59.4887Q30.2153 56.1977 34.242 53.8729L111 9.55663Q115.027 7.23181 119.515 6.03986Q123.93 4.86751 128.5 4.86751Q133.07 4.86751 137.485 6.03986Q141.973 7.23181 146 9.55663L222.758 53.8729Q226.785 56.1977 230.061 59.4887Q233.284 62.7257 235.569 66.6838Q237.854 70.6419 239.046 75.0511Q240.258 79.5341 240.258 84.1838ZM220.258 84.1838Q220.258 82.1898 219.739 80.2705Q219.228 78.3812 218.248 76.6838Q217.268 74.9863 215.888 73.5994Q214.485 72.1904 212.758 71.1934L136 26.8771Q134.273 25.8802 132.352 25.3698Q130.46 24.8675 128.5 24.8675Q126.54 24.8675 124.648 25.3698Q122.727 25.8802 121 26.8771L44.242 71.1934Q42.5152 72.1904 41.1125 73.5994Q39.7316 74.9863 38.7516 76.6838Q37.7716 78.3812 37.2609 80.2705Q36.742 82.1898 36.742 84.1838L36.742 172.816Q36.742 174.81 37.2609 176.729Q37.7716 178.619 38.7516 180.316Q39.7317 182.014 41.1125 183.401Q42.5152 184.81 44.242 185.807L121 230.123Q122.727 231.12 124.648 231.63Q126.54 232.132 128.5 232.132Q130.46 232.132 132.352 231.63Q134.273 231.12 136 230.123L212.758 185.807Q214.485 184.81 215.888 183.401Q217.268 182.014 218.248 180.316Q219.228 178.619 219.739 176.729Q220.258 174.81 220.258 172.816L220.258 84.1838Z"></path>
    <path fill="url(#linear_fill_4_3_0)"
          d="M133.975 208.454L140.392 138.06C140.552 136.309 141.472 134.716 142.908 133.702L200.663 92.9478C206.63 88.7367 201.318 79.5358 194.687 82.5984L130.516 112.238C128.92 112.975 127.08 112.975 125.484 112.238L61.3125 82.5984C54.6818 79.5358 49.3696 88.7367 55.3373 92.9478L113.092 133.702C114.528 134.716 115.448 136.309 115.608 138.06L122.025 208.454C122.688 215.728 133.312 215.728 133.975 208.454Z"></path>
    <defs>
        <linearGradient id="linear_border_4_2_0" x1="122.47930145263672" y1="288.800537109375" x2="122.47930145263672"
                        y2="-340.7879638671875" gradientUnits="userSpaceOnUse">
            <stop offset="0" stop-color="#57BECA"/>
            <stop offset="1" stop-color="#57BECA" stop-opacity="0"/>
        </linearGradient>
        <linearGradient id="linear_fill_4_3_0" x1="128.83511352539062" y1="-28.14117431640625" x2="128.83511352539062"
                        y2="430.8974609375" gradientUnits="userSpaceOnUse">
            <stop offset="0" stop-color="#4AE0A4"/>
            <stop offset="1" stop-color="#4AE0A4" stop-opacity="0"/>
        </linearGradient>
    </defs>
</svg>
